<svg width="100%" viewBox="0 0 680 410" role="img" xmlns="http://www.w3.org/2000/svg">
<title>5Vから180Vへの昇圧コンバータ回路図（MC34063A・外付けFET）</title>
<desc>MC34063A 昇圧コントローラで外付け Nch FET をゲート駆動。電流検出 Rsc は VCC と Ipk の間（ハイサイド、入力電流経路）に入り、約0.3Vでピーク制限。発振周波数はタイミングコンデンサ Ct で設定。出力電圧は FB 分圧（R1/R2、基準1.25V）で約181V。MOSFET ソースは直接 GND。</desc>
<style>
.w{fill:none;stroke:#1a1a1a;stroke-width:1.2}
.b{fill:none;stroke:#2563eb;stroke-width:1.5}
.r{fill:none;stroke:#dc2626;stroke-width:1.5}
.c{fill:none;stroke:#777;stroke-width:1.1;stroke-dasharray:4 3}
.body{fill:none;stroke:#1a1a1a;stroke-width:1.4}
.dot{fill:#1a1a1a}
.tri{fill:#1a1a1a}
text{font-family:sans-serif;fill:#1a1a1a}
.t{font-size:14px}.ts{font-size:12px}
.box{fill:#f0f0f0;stroke:#888;stroke-width:1}
</style>

<path class="b" d="M40,70 H105"/>
<circle class="dot" cx="40" cy="70" r="3"/>
<text class="ts" x="34" y="58">+5V in</text>

<path class="b" d="M55,70 V182"/>
<path class="b" d="M43,182 H67"/>
<path class="b" d="M43,193 H67"/>
<path class="w" d="M55,193 V372"/>
<circle class="dot" cx="55" cy="70" r="2.5"/>
<text class="ts" x="60" y="150">C_in 22µF</text>

<circle class="dot" cx="90" cy="70" r="2.5"/>
<path class="b" d="M90,70 V238"/>

<rect class="body" x="105" y="62" width="40" height="16"/>
<text class="ts" x="106" y="52">Rsc 0.3Ω</text>
<path class="w" d="M145,70 H175"/>
<circle class="dot" cx="160" cy="70" r="2.5"/>
<path class="w" d="M160,70 V238"/>

<path class="body" d="M175,70 q11,-13 22,0 q11,-13 22,0 q11,-13 22,0 q11,-13 22,0"/>
<text class="ts" x="190" y="52">L 47µH</text>

<path class="w" d="M263,70 H320"/>
<text class="ts" x="276" y="60">SW</text>
<circle class="dot" cx="300" cy="70" r="2.5"/>
<path class="w" d="M300,70 V160"/>

<line class="body" x1="300" y1="160" x2="300" y2="200"/>
<line class="body" x1="288" y1="164" x2="288" y2="196"/>
<path class="c" d="M215,238 V180 H288"/>
<text class="t" x="314" y="172">Q</text>
<text class="ts" x="314" y="187">IRF740</text>
<text class="ts" x="314" y="201">Vds 400V</text>

<path class="w" d="M300,200 V372"/>

<polygon class="tri" points="320,62 320,78 342,70"/>
<line class="w" x1="344" y1="60" x2="344" y2="80"/>
<text class="ts" x="316" y="50">D UF4007</text>

<path class="r" d="M344,70 H630"/>
<circle class="dot" cx="630" cy="70" r="3"/>
<text class="ts" x="582" y="58">+180V out</text>
<circle class="dot" cx="400" cy="70" r="2.5"/>
<circle class="dot" cx="520" cy="70" r="2.5"/>
<circle class="dot" cx="600" cy="70" r="2.5"/>

<path class="r" d="M400,70 V182"/>
<path class="r" d="M388,182 H412"/>
<path class="r" d="M388,193 H412"/>
<path class="w" d="M400,193 V372"/>
<text class="ts" x="414" y="180">+</text>
<text class="ts" x="414" y="196">C_out</text>
<text class="ts" x="414" y="210">10µF/250V</text>

<path class="r" d="M520,70 V150"/>
<rect class="body" x="512" y="150" width="16" height="95"/>
<path class="w" d="M520,245 V372"/>
<text class="ts" x="532" y="195">Rb 470k</text>
<text class="ts" x="532" y="209">2W</text>

<path class="r" d="M600,70 V100"/>
<rect class="body" x="592" y="100" width="16" height="50"/>
<path class="w" d="M600,150 V175"/>
<circle class="dot" cx="600" cy="162" r="2.5"/>
<rect class="body" x="592" y="175" width="16" height="50"/>
<path class="w" d="M600,225 V372"/>
<text class="ts" x="548" y="128">R1 1.8M</text>
<text class="ts" x="548" y="205">R2 12.5k</text>
<text class="ts" x="612" y="166">FB</text>

<path class="c" d="M600,162 H620 V392 H255 V270 H250"/>

<rect class="box" x="70" y="238" width="180" height="82" rx="6"/>
<text class="t" x="160" y="270" text-anchor="middle">MC34063A</text>
<text class="ts" x="160" y="286" text-anchor="middle">昇圧コントローラ</text>
<text class="ts" x="90" y="252" text-anchor="middle">VCC</text>
<text class="ts" x="160" y="252" text-anchor="middle">Ipk</text>
<text class="ts" x="215" y="252" text-anchor="middle">DRV</text>
<text class="ts" x="106" y="314" text-anchor="middle">GND</text>
<text class="ts" x="152" y="314" text-anchor="middle">CT</text>
<text class="ts" x="244" y="266" text-anchor="end">FB</text>

<path class="w" d="M106,320 V372"/>

<path class="w" d="M152,320 V330"/>
<path class="w" d="M142,330 H162"/>
<path class="w" d="M142,336 H162"/>
<path class="w" d="M152,336 V372"/>
<text class="ts" x="120" y="352">Ct</text>
<text class="ts" x="106" y="365">~390pF</text>

<text class="ts" x="222" y="232">→ ゲート駆動</text>

<path class="w" d="M40,372 H630"/>
<text class="ts" x="34" y="389">GND</text>
<circle class="dot" cx="300" cy="372" r="2.5"/>
<circle class="dot" cx="400" cy="372" r="2.5"/>
<circle class="dot" cx="520" cy="372" r="2.5"/>
<circle class="dot" cx="600" cy="372" r="2.5"/>

<text class="ts" x="40" y="405">青 = +5V 系  /  赤 = +180V 系  /  破線 = 制御信号  /  電流検出はハイサイド（VCC〜Ipk 間に Rsc）</text>
</svg>
